<mxfile host="app.diagrams.net" agent="Mozilla/5.0 (Macintosh; Intel Mac OS X 10_15_7) AppleWebKit/537.36 (KHTML, like Gecko) Chrome/131.0.0.0 Safari/537.36 Edg/131.0.0.0" version="26.1.0">
  <diagram name="第 1 页" id="tNIIOWR_oVBMtGQojX32">
    <mxGraphModel dx="1076" dy="1082" grid="0" gridSize="10" guides="1" tooltips="1" connect="1" arrows="1" fold="1" page="0" pageScale="1" pageWidth="827" pageHeight="1169" math="0" shadow="0">
      <root>
        <mxCell id="0" />
        <mxCell id="1" parent="0" />
        <mxCell id="_Iga_zfzMakfGa9zRAI4-32" style="rounded=0;orthogonalLoop=1;jettySize=auto;html=1;entryX=0;entryY=0.5;entryDx=0;entryDy=0;exitX=1;exitY=0.3333333333333333;exitDx=0;exitDy=0;exitPerimeter=0;" parent="1" source="_Iga_zfzMakfGa9zRAI4-8" target="_Iga_zfzMakfGa9zRAI4-14" edge="1">
          <mxGeometry relative="1" as="geometry" />
        </mxCell>
        <mxCell id="lPRFrRNjKn7Ll8QfIwgm-1" style="rounded=0;orthogonalLoop=1;jettySize=auto;html=1;exitX=1;exitY=0.3333333333333333;exitDx=0;exitDy=0;exitPerimeter=0;entryX=0;entryY=0.5;entryDx=0;entryDy=0;" parent="1" source="_Iga_zfzMakfGa9zRAI4-8" target="_Iga_zfzMakfGa9zRAI4-38" edge="1">
          <mxGeometry relative="1" as="geometry" />
        </mxCell>
        <mxCell id="M4vis54UrrYnqnbrriGl-35" style="rounded=0;orthogonalLoop=1;jettySize=auto;html=1;entryX=0;entryY=0.5;entryDx=0;entryDy=0;" parent="1" source="_Iga_zfzMakfGa9zRAI4-8" target="M4vis54UrrYnqnbrriGl-5" edge="1">
          <mxGeometry relative="1" as="geometry" />
        </mxCell>
        <mxCell id="M4vis54UrrYnqnbrriGl-36" style="rounded=0;orthogonalLoop=1;jettySize=auto;html=1;entryX=0;entryY=0.5;entryDx=0;entryDy=0;" parent="1" source="_Iga_zfzMakfGa9zRAI4-8" target="M4vis54UrrYnqnbrriGl-18" edge="1">
          <mxGeometry relative="1" as="geometry" />
        </mxCell>
        <mxCell id="44BCT_Au62cUfSM1vnff-14" style="rounded=0;orthogonalLoop=1;jettySize=auto;html=1;entryX=0;entryY=0.5;entryDx=0;entryDy=0;" parent="1" source="_Iga_zfzMakfGa9zRAI4-8" target="44BCT_Au62cUfSM1vnff-5" edge="1">
          <mxGeometry relative="1" as="geometry" />
        </mxCell>
        <object label="&lt;div&gt;&lt;span style=&quot;background-color: transparent; color: light-dark(rgb(0, 0, 0), rgb(255, 255, 255));&quot;&gt;管理员&lt;/span&gt;&lt;/div&gt;" id="_Iga_zfzMakfGa9zRAI4-8">
          <mxCell style="shape=umlActor;verticalLabelPosition=bottom;verticalAlign=top;outlineConnect=0;labelBorderColor=none;html=1;" parent="1" vertex="1">
            <mxGeometry x="80" y="100" width="30" height="60" as="geometry" />
          </mxCell>
        </object>
        <mxCell id="_Iga_zfzMakfGa9zRAI4-15" style="rounded=0;orthogonalLoop=1;jettySize=auto;html=1;entryX=0;entryY=0.5;entryDx=0;entryDy=0;" parent="1" source="_Iga_zfzMakfGa9zRAI4-10" target="M4vis54UrrYnqnbrriGl-5" edge="1">
          <mxGeometry relative="1" as="geometry" />
        </mxCell>
        <mxCell id="lPRFrRNjKn7Ll8QfIwgm-2" style="rounded=0;orthogonalLoop=1;jettySize=auto;html=1;exitX=1;exitY=0.3333333333333333;exitDx=0;exitDy=0;exitPerimeter=0;entryX=0;entryY=0.5;entryDx=0;entryDy=0;" parent="1" source="_Iga_zfzMakfGa9zRAI4-10" target="_Iga_zfzMakfGa9zRAI4-38" edge="1">
          <mxGeometry relative="1" as="geometry">
            <mxPoint x="290" y="200" as="targetPoint" />
          </mxGeometry>
        </mxCell>
        <mxCell id="M4vis54UrrYnqnbrriGl-34" style="rounded=0;orthogonalLoop=1;jettySize=auto;html=1;entryX=0;entryY=0.5;entryDx=0;entryDy=0;" parent="1" source="_Iga_zfzMakfGa9zRAI4-10" target="M4vis54UrrYnqnbrriGl-18" edge="1">
          <mxGeometry relative="1" as="geometry" />
        </mxCell>
        <mxCell id="_Iga_zfzMakfGa9zRAI4-10" value="普通用户" style="shape=umlActor;verticalLabelPosition=bottom;verticalAlign=top;html=1;outlineConnect=0;fontColor=default;labelBackgroundColor=none;labelBorderColor=none;" parent="1" vertex="1">
          <mxGeometry x="80" y="620" width="30" height="60" as="geometry" />
        </mxCell>
        <mxCell id="_Iga_zfzMakfGa9zRAI4-21" style="rounded=0;orthogonalLoop=1;jettySize=auto;html=1;entryX=0;entryY=0.5;entryDx=0;entryDy=0;dashed=1;exitX=1;exitY=0.5;exitDx=0;exitDy=0;" parent="1" source="_Iga_zfzMakfGa9zRAI4-14" target="_Iga_zfzMakfGa9zRAI4-17" edge="1">
          <mxGeometry relative="1" as="geometry">
            <mxPoint x="509" y="12" as="sourcePoint" />
          </mxGeometry>
        </mxCell>
        <mxCell id="_Iga_zfzMakfGa9zRAI4-22" style="rounded=0;orthogonalLoop=1;jettySize=auto;html=1;entryX=0;entryY=0.5;entryDx=0;entryDy=0;dashed=1;exitX=1;exitY=0.5;exitDx=0;exitDy=0;fontColor=default;" parent="1" source="_Iga_zfzMakfGa9zRAI4-14" target="_Iga_zfzMakfGa9zRAI4-18" edge="1">
          <mxGeometry relative="1" as="geometry">
            <mxPoint x="509" y="12" as="sourcePoint" />
          </mxGeometry>
        </mxCell>
        <mxCell id="_Iga_zfzMakfGa9zRAI4-23" style="rounded=0;orthogonalLoop=1;jettySize=auto;html=1;entryX=0;entryY=0.5;entryDx=0;entryDy=0;dashed=1;exitX=1;exitY=0.5;exitDx=0;exitDy=0;" parent="1" source="_Iga_zfzMakfGa9zRAI4-14" target="_Iga_zfzMakfGa9zRAI4-19" edge="1">
          <mxGeometry relative="1" as="geometry" />
        </mxCell>
        <mxCell id="_Iga_zfzMakfGa9zRAI4-24" style="rounded=0;orthogonalLoop=1;jettySize=auto;html=1;entryX=0;entryY=0.5;entryDx=0;entryDy=0;dashed=1;exitX=1;exitY=0.5;exitDx=0;exitDy=0;" parent="1" source="_Iga_zfzMakfGa9zRAI4-14" target="_Iga_zfzMakfGa9zRAI4-20" edge="1">
          <mxGeometry relative="1" as="geometry">
            <mxPoint x="565" y="122" as="sourcePoint" />
            <mxPoint x="751" y="172" as="targetPoint" />
          </mxGeometry>
        </mxCell>
        <mxCell id="44BCT_Au62cUfSM1vnff-18" style="rounded=0;orthogonalLoop=1;jettySize=auto;html=1;entryX=0;entryY=0.5;entryDx=0;entryDy=0;exitX=1;exitY=0.5;exitDx=0;exitDy=0;dashed=1;" parent="1" source="_Iga_zfzMakfGa9zRAI4-14" target="44BCT_Au62cUfSM1vnff-16" edge="1">
          <mxGeometry relative="1" as="geometry" />
        </mxCell>
        <mxCell id="44BCT_Au62cUfSM1vnff-19" style="rounded=0;orthogonalLoop=1;jettySize=auto;html=1;entryX=0;entryY=0.5;entryDx=0;entryDy=0;dashed=1;exitX=1;exitY=0.5;exitDx=0;exitDy=0;" parent="1" source="_Iga_zfzMakfGa9zRAI4-14" target="44BCT_Au62cUfSM1vnff-17" edge="1">
          <mxGeometry relative="1" as="geometry">
            <mxPoint x="521" y="102" as="sourcePoint" />
          </mxGeometry>
        </mxCell>
        <mxCell id="_Iga_zfzMakfGa9zRAI4-14" value="用户权限管理" style="ellipse;whiteSpace=wrap;html=1;align=center;" parent="1" vertex="1">
          <mxGeometry x="429" y="62" width="100" height="40" as="geometry" />
        </mxCell>
        <mxCell id="_Iga_zfzMakfGa9zRAI4-17" value="删除用户" style="ellipse;whiteSpace=wrap;html=1;align=center;" parent="1" vertex="1">
          <mxGeometry x="705" y="-118" width="160" height="40" as="geometry" />
        </mxCell>
        <mxCell id="_Iga_zfzMakfGa9zRAI4-18" value="分配用户组" style="ellipse;whiteSpace=wrap;html=1;align=center;" parent="1" vertex="1">
          <mxGeometry x="705" y="-63" width="160" height="40" as="geometry" />
        </mxCell>
        <mxCell id="_Iga_zfzMakfGa9zRAI4-19" value="分配用户权限" style="ellipse;whiteSpace=wrap;html=1;align=center;" parent="1" vertex="1">
          <mxGeometry x="705" y="82" width="160" height="40" as="geometry" />
        </mxCell>
        <mxCell id="_Iga_zfzMakfGa9zRAI4-20" value="查询所有用户信息" style="ellipse;whiteSpace=wrap;html=1;align=center;" parent="1" vertex="1">
          <mxGeometry x="705" y="137" width="160" height="40" as="geometry" />
        </mxCell>
        <mxCell id="_Iga_zfzMakfGa9zRAI4-27" value="&amp;lt;&amp;lt;include&amp;gt;&amp;gt;" style="text;html=1;align=center;verticalAlign=middle;resizable=0;points=[];autosize=1;strokeColor=none;fillColor=none;rotation=-45;" parent="1" vertex="1">
          <mxGeometry x="561" y="-38" width="90" height="30" as="geometry" />
        </mxCell>
        <mxCell id="_Iga_zfzMakfGa9zRAI4-28" value="&amp;lt;&amp;lt;include&amp;gt;&amp;gt;" style="text;html=1;align=center;verticalAlign=middle;resizable=0;points=[];autosize=1;strokeColor=none;fillColor=none;rotation=20;" parent="1" vertex="1">
          <mxGeometry x="565" y="122" width="90" height="30" as="geometry" />
        </mxCell>
        <mxCell id="_Iga_zfzMakfGa9zRAI4-29" value="&amp;lt;&amp;lt;include&amp;gt;&amp;gt;" style="text;html=1;align=center;verticalAlign=middle;resizable=0;points=[];autosize=1;strokeColor=none;fillColor=none;rotation=15;" parent="1" vertex="1">
          <mxGeometry x="585" y="92" width="90" height="30" as="geometry" />
        </mxCell>
        <mxCell id="_Iga_zfzMakfGa9zRAI4-31" value="&amp;lt;&amp;lt;include&amp;gt;&amp;gt;" style="text;html=1;align=center;verticalAlign=middle;resizable=0;points=[];autosize=1;strokeColor=none;fillColor=none;rotation=-45;" parent="1" vertex="1">
          <mxGeometry x="579" y="-18" width="90" height="30" as="geometry" />
        </mxCell>
        <mxCell id="_Iga_zfzMakfGa9zRAI4-34" style="rounded=0;orthogonalLoop=1;jettySize=auto;html=1;entryX=0;entryY=0.5;entryDx=0;entryDy=0;dashed=1;exitX=1;exitY=0.5;exitDx=0;exitDy=0;" parent="1" source="_Iga_zfzMakfGa9zRAI4-38" target="_Iga_zfzMakfGa9zRAI4-39" edge="1">
          <mxGeometry relative="1" as="geometry" />
        </mxCell>
        <mxCell id="_Iga_zfzMakfGa9zRAI4-35" style="rounded=0;orthogonalLoop=1;jettySize=auto;html=1;entryX=0;entryY=0.5;entryDx=0;entryDy=0;dashed=1;exitX=1;exitY=0.5;exitDx=0;exitDy=0;fontColor=default;" parent="1" source="_Iga_zfzMakfGa9zRAI4-38" target="_Iga_zfzMakfGa9zRAI4-40" edge="1">
          <mxGeometry relative="1" as="geometry" />
        </mxCell>
        <mxCell id="_Iga_zfzMakfGa9zRAI4-36" style="rounded=0;orthogonalLoop=1;jettySize=auto;html=1;entryX=0;entryY=0.5;entryDx=0;entryDy=0;dashed=1;exitX=1;exitY=0.5;exitDx=0;exitDy=0;" parent="1" source="_Iga_zfzMakfGa9zRAI4-38" target="_Iga_zfzMakfGa9zRAI4-41" edge="1">
          <mxGeometry relative="1" as="geometry" />
        </mxCell>
        <mxCell id="_Iga_zfzMakfGa9zRAI4-37" style="rounded=0;orthogonalLoop=1;jettySize=auto;html=1;entryX=0;entryY=0.5;entryDx=0;entryDy=0;dashed=1;exitX=1;exitY=0.5;exitDx=0;exitDy=0;" parent="1" source="_Iga_zfzMakfGa9zRAI4-38" target="_Iga_zfzMakfGa9zRAI4-42" edge="1">
          <mxGeometry relative="1" as="geometry">
            <mxPoint x="577" y="402" as="sourcePoint" />
            <mxPoint x="763" y="452" as="targetPoint" />
          </mxGeometry>
        </mxCell>
        <mxCell id="_Iga_zfzMakfGa9zRAI4-38" value="文章分析" style="ellipse;whiteSpace=wrap;html=1;align=center;" parent="1" vertex="1">
          <mxGeometry x="429" y="362" width="102" height="40" as="geometry" />
        </mxCell>
        <mxCell id="_Iga_zfzMakfGa9zRAI4-39" value="关键词分析" style="ellipse;whiteSpace=wrap;html=1;align=center;" parent="1" vertex="1">
          <mxGeometry x="717" y="252" width="160" height="40" as="geometry" />
        </mxCell>
        <mxCell id="_Iga_zfzMakfGa9zRAI4-40" value="情感分析" style="ellipse;whiteSpace=wrap;html=1;align=center;" parent="1" vertex="1">
          <mxGeometry x="717" y="307" width="160" height="40" as="geometry" />
        </mxCell>
        <mxCell id="_Iga_zfzMakfGa9zRAI4-41" value="词性标注" style="ellipse;whiteSpace=wrap;html=1;align=center;" parent="1" vertex="1">
          <mxGeometry x="717" y="362" width="160" height="40" as="geometry" />
        </mxCell>
        <mxCell id="_Iga_zfzMakfGa9zRAI4-42" value="主题分析" style="ellipse;whiteSpace=wrap;html=1;align=center;" parent="1" vertex="1">
          <mxGeometry x="717" y="417" width="160" height="40" as="geometry" />
        </mxCell>
        <mxCell id="_Iga_zfzMakfGa9zRAI4-43" value="&amp;lt;&amp;lt;include&amp;gt;&amp;gt;" style="text;html=1;align=center;verticalAlign=middle;resizable=0;points=[];autosize=1;strokeColor=none;fillColor=none;rotation=-45;" parent="1" vertex="1">
          <mxGeometry x="565" y="277" width="90" height="30" as="geometry" />
        </mxCell>
        <mxCell id="_Iga_zfzMakfGa9zRAI4-44" value="&amp;lt;&amp;lt;include&amp;gt;&amp;gt;" style="text;html=1;align=center;verticalAlign=middle;resizable=0;points=[];autosize=1;strokeColor=none;fillColor=none;rotation=15;" parent="1" vertex="1">
          <mxGeometry x="589" y="387" width="90" height="30" as="geometry" />
        </mxCell>
        <mxCell id="_Iga_zfzMakfGa9zRAI4-45" value="&amp;lt;&amp;lt;include&amp;gt;&amp;gt;" style="text;html=1;align=center;verticalAlign=middle;resizable=0;points=[];autosize=1;strokeColor=none;fillColor=none;rotation=0;" parent="1" vertex="1">
          <mxGeometry x="589" y="352" width="90" height="30" as="geometry" />
        </mxCell>
        <mxCell id="_Iga_zfzMakfGa9zRAI4-46" value="&amp;lt;&amp;lt;include&amp;gt;&amp;gt;" style="text;html=1;align=center;verticalAlign=middle;resizable=0;points=[];autosize=1;strokeColor=none;fillColor=none;rotation=-20;" parent="1" vertex="1">
          <mxGeometry x="587" y="322" width="90" height="30" as="geometry" />
        </mxCell>
        <mxCell id="M4vis54UrrYnqnbrriGl-1" style="rounded=0;orthogonalLoop=1;jettySize=auto;html=1;entryX=0;entryY=0.5;entryDx=0;entryDy=0;dashed=1;exitX=1;exitY=0.5;exitDx=0;exitDy=0;" parent="1" source="M4vis54UrrYnqnbrriGl-5" target="M4vis54UrrYnqnbrriGl-6" edge="1">
          <mxGeometry relative="1" as="geometry" />
        </mxCell>
        <mxCell id="M4vis54UrrYnqnbrriGl-2" style="rounded=0;orthogonalLoop=1;jettySize=auto;html=1;entryX=0;entryY=0.5;entryDx=0;entryDy=0;dashed=1;exitX=1;exitY=0.5;exitDx=0;exitDy=0;fontColor=default;" parent="1" source="M4vis54UrrYnqnbrriGl-5" target="M4vis54UrrYnqnbrriGl-7" edge="1">
          <mxGeometry relative="1" as="geometry" />
        </mxCell>
        <mxCell id="M4vis54UrrYnqnbrriGl-3" style="rounded=0;orthogonalLoop=1;jettySize=auto;html=1;entryX=0;entryY=0.5;entryDx=0;entryDy=0;dashed=1;exitX=1;exitY=0.5;exitDx=0;exitDy=0;" parent="1" source="M4vis54UrrYnqnbrriGl-5" target="M4vis54UrrYnqnbrriGl-8" edge="1">
          <mxGeometry relative="1" as="geometry" />
        </mxCell>
        <mxCell id="M4vis54UrrYnqnbrriGl-4" style="rounded=0;orthogonalLoop=1;jettySize=auto;html=1;entryX=0;entryY=0.5;entryDx=0;entryDy=0;dashed=1;exitX=1;exitY=0.5;exitDx=0;exitDy=0;" parent="1" source="M4vis54UrrYnqnbrriGl-5" target="M4vis54UrrYnqnbrriGl-9" edge="1">
          <mxGeometry relative="1" as="geometry">
            <mxPoint x="577" y="722" as="sourcePoint" />
            <mxPoint x="763" y="772" as="targetPoint" />
          </mxGeometry>
        </mxCell>
        <mxCell id="M4vis54UrrYnqnbrriGl-5" value="用户管理" style="ellipse;whiteSpace=wrap;html=1;align=center;" parent="1" vertex="1">
          <mxGeometry x="431" y="682" width="100" height="40" as="geometry" />
        </mxCell>
        <mxCell id="M4vis54UrrYnqnbrriGl-6" value="用户登陆" style="ellipse;whiteSpace=wrap;html=1;align=center;" parent="1" vertex="1">
          <mxGeometry x="717" y="572" width="160" height="40" as="geometry" />
        </mxCell>
        <mxCell id="M4vis54UrrYnqnbrriGl-7" value="用户注册" style="ellipse;whiteSpace=wrap;html=1;align=center;" parent="1" vertex="1">
          <mxGeometry x="717" y="627" width="160" height="40" as="geometry" />
        </mxCell>
        <mxCell id="M4vis54UrrYnqnbrriGl-8" value="查看个人信息" style="ellipse;whiteSpace=wrap;html=1;align=center;" parent="1" vertex="1">
          <mxGeometry x="717" y="682" width="160" height="40" as="geometry" />
        </mxCell>
        <mxCell id="M4vis54UrrYnqnbrriGl-9" value="修改个人信息" style="ellipse;whiteSpace=wrap;html=1;align=center;" parent="1" vertex="1">
          <mxGeometry x="717" y="737" width="160" height="40" as="geometry" />
        </mxCell>
        <mxCell id="M4vis54UrrYnqnbrriGl-10" value="&amp;lt;&amp;lt;include&amp;gt;&amp;gt;" style="text;html=1;align=center;verticalAlign=middle;resizable=0;points=[];autosize=1;strokeColor=none;fillColor=none;rotation=-30;" parent="1" vertex="1">
          <mxGeometry x="567" y="622" width="90" height="30" as="geometry" />
        </mxCell>
        <mxCell id="M4vis54UrrYnqnbrriGl-11" value="&amp;lt;&amp;lt;include&amp;gt;&amp;gt;" style="text;html=1;align=center;verticalAlign=middle;resizable=0;points=[];autosize=1;strokeColor=none;fillColor=none;rotation=20;" parent="1" vertex="1">
          <mxGeometry x="577" y="722" width="90" height="30" as="geometry" />
        </mxCell>
        <mxCell id="M4vis54UrrYnqnbrriGl-12" value="&amp;lt;&amp;lt;include&amp;gt;&amp;gt;" style="text;html=1;align=center;verticalAlign=middle;resizable=0;points=[];autosize=1;strokeColor=none;fillColor=none;rotation=0;" parent="1" vertex="1">
          <mxGeometry x="597" y="682" width="90" height="30" as="geometry" />
        </mxCell>
        <mxCell id="M4vis54UrrYnqnbrriGl-13" value="&amp;lt;&amp;lt;include&amp;gt;&amp;gt;" style="text;html=1;align=center;verticalAlign=middle;resizable=0;points=[];autosize=1;strokeColor=none;fillColor=none;rotation=-20;" parent="1" vertex="1">
          <mxGeometry x="587" y="642" width="90" height="30" as="geometry" />
        </mxCell>
        <mxCell id="M4vis54UrrYnqnbrriGl-14" style="rounded=0;orthogonalLoop=1;jettySize=auto;html=1;entryX=0;entryY=0.5;entryDx=0;entryDy=0;dashed=1;exitX=1;exitY=0.5;exitDx=0;exitDy=0;" parent="1" source="M4vis54UrrYnqnbrriGl-18" target="M4vis54UrrYnqnbrriGl-19" edge="1">
          <mxGeometry relative="1" as="geometry" />
        </mxCell>
        <mxCell id="M4vis54UrrYnqnbrriGl-15" style="rounded=0;orthogonalLoop=1;jettySize=auto;html=1;entryX=0;entryY=0.5;entryDx=0;entryDy=0;dashed=1;exitX=1;exitY=0.5;exitDx=0;exitDy=0;fontColor=default;" parent="1" source="M4vis54UrrYnqnbrriGl-18" target="M4vis54UrrYnqnbrriGl-20" edge="1">
          <mxGeometry relative="1" as="geometry" />
        </mxCell>
        <mxCell id="M4vis54UrrYnqnbrriGl-16" style="rounded=0;orthogonalLoop=1;jettySize=auto;html=1;entryX=0;entryY=0.5;entryDx=0;entryDy=0;dashed=1;exitX=1;exitY=0.5;exitDx=0;exitDy=0;" parent="1" source="M4vis54UrrYnqnbrriGl-18" target="M4vis54UrrYnqnbrriGl-21" edge="1">
          <mxGeometry relative="1" as="geometry" />
        </mxCell>
        <mxCell id="M4vis54UrrYnqnbrriGl-17" style="rounded=0;orthogonalLoop=1;jettySize=auto;html=1;entryX=0;entryY=0.5;entryDx=0;entryDy=0;dashed=1;exitX=1;exitY=0.5;exitDx=0;exitDy=0;" parent="1" source="M4vis54UrrYnqnbrriGl-18" target="M4vis54UrrYnqnbrriGl-22" edge="1">
          <mxGeometry relative="1" as="geometry">
            <mxPoint x="577" y="972" as="sourcePoint" />
            <mxPoint x="763" y="1022" as="targetPoint" />
          </mxGeometry>
        </mxCell>
        <mxCell id="M4vis54UrrYnqnbrriGl-18" value="文章管理" style="ellipse;whiteSpace=wrap;html=1;align=center;" parent="1" vertex="1">
          <mxGeometry x="431" y="932" width="100" height="40" as="geometry" />
        </mxCell>
        <mxCell id="M4vis54UrrYnqnbrriGl-19" value="文章查看" style="ellipse;whiteSpace=wrap;html=1;align=center;" parent="1" vertex="1">
          <mxGeometry x="717" y="822" width="160" height="40" as="geometry" />
        </mxCell>
        <mxCell id="M4vis54UrrYnqnbrriGl-20" value="文章修改" style="ellipse;whiteSpace=wrap;html=1;align=center;" parent="1" vertex="1">
          <mxGeometry x="717" y="877" width="160" height="40" as="geometry" />
        </mxCell>
        <mxCell id="M4vis54UrrYnqnbrriGl-21" value="文章删除" style="ellipse;whiteSpace=wrap;html=1;align=center;" parent="1" vertex="1">
          <mxGeometry x="717" y="932" width="160" height="40" as="geometry" />
        </mxCell>
        <mxCell id="M4vis54UrrYnqnbrriGl-22" value="修改个人信息" style="ellipse;whiteSpace=wrap;html=1;align=center;" parent="1" vertex="1">
          <mxGeometry x="717" y="987" width="160" height="40" as="geometry" />
        </mxCell>
        <mxCell id="M4vis54UrrYnqnbrriGl-23" value="&amp;lt;&amp;lt;include&amp;gt;&amp;gt;" style="text;html=1;align=center;verticalAlign=middle;resizable=0;points=[];autosize=1;strokeColor=none;fillColor=none;rotation=-30;" parent="1" vertex="1">
          <mxGeometry x="567" y="872" width="90" height="30" as="geometry" />
        </mxCell>
        <mxCell id="M4vis54UrrYnqnbrriGl-24" value="&amp;lt;&amp;lt;include&amp;gt;&amp;gt;" style="text;html=1;align=center;verticalAlign=middle;resizable=0;points=[];autosize=1;strokeColor=none;fillColor=none;rotation=20;" parent="1" vertex="1">
          <mxGeometry x="577" y="972" width="90" height="30" as="geometry" />
        </mxCell>
        <mxCell id="M4vis54UrrYnqnbrriGl-25" value="&amp;lt;&amp;lt;include&amp;gt;&amp;gt;" style="text;html=1;align=center;verticalAlign=middle;resizable=0;points=[];autosize=1;strokeColor=none;fillColor=none;rotation=0;" parent="1" vertex="1">
          <mxGeometry x="597" y="932" width="90" height="30" as="geometry" />
        </mxCell>
        <mxCell id="M4vis54UrrYnqnbrriGl-26" value="&amp;lt;&amp;lt;include&amp;gt;&amp;gt;" style="text;html=1;align=center;verticalAlign=middle;resizable=0;points=[];autosize=1;strokeColor=none;fillColor=none;rotation=-20;" parent="1" vertex="1">
          <mxGeometry x="587" y="892" width="90" height="30" as="geometry" />
        </mxCell>
        <mxCell id="M4vis54UrrYnqnbrriGl-27" value="摘要分析" style="ellipse;whiteSpace=wrap;html=1;align=center;" parent="1" vertex="1">
          <mxGeometry x="715" y="192" width="160" height="40" as="geometry" />
        </mxCell>
        <mxCell id="M4vis54UrrYnqnbrriGl-28" style="rounded=0;orthogonalLoop=1;jettySize=auto;html=1;entryX=0;entryY=0.5;entryDx=0;entryDy=0;dashed=1;exitX=1;exitY=0.5;exitDx=0;exitDy=0;" parent="1" source="_Iga_zfzMakfGa9zRAI4-38" target="M4vis54UrrYnqnbrriGl-27" edge="1">
          <mxGeometry relative="1" as="geometry">
            <mxPoint x="531" y="332" as="sourcePoint" />
            <mxPoint x="717" y="222" as="targetPoint" />
          </mxGeometry>
        </mxCell>
        <mxCell id="M4vis54UrrYnqnbrriGl-29" value="&amp;lt;&amp;lt;include&amp;gt;&amp;gt;" style="text;html=1;align=center;verticalAlign=middle;resizable=0;points=[];autosize=1;strokeColor=none;fillColor=none;rotation=-30;" parent="1" vertex="1">
          <mxGeometry x="599" y="282" width="90" height="30" as="geometry" />
        </mxCell>
        <mxCell id="M4vis54UrrYnqnbrriGl-31" value="手动标柱" style="ellipse;whiteSpace=wrap;html=1;align=center;" parent="1" vertex="1">
          <mxGeometry x="715" y="472" width="160" height="40" as="geometry" />
        </mxCell>
        <mxCell id="M4vis54UrrYnqnbrriGl-32" style="rounded=0;orthogonalLoop=1;jettySize=auto;html=1;entryX=0;entryY=0.5;entryDx=0;entryDy=0;dashed=1;exitX=1;exitY=0.5;exitDx=0;exitDy=0;" parent="1" source="_Iga_zfzMakfGa9zRAI4-38" target="M4vis54UrrYnqnbrriGl-31" edge="1">
          <mxGeometry relative="1" as="geometry">
            <mxPoint x="541" y="392" as="sourcePoint" />
            <mxPoint x="727" y="447" as="targetPoint" />
          </mxGeometry>
        </mxCell>
        <mxCell id="M4vis54UrrYnqnbrriGl-33" value="&amp;lt;&amp;lt;include&amp;gt;&amp;gt;" style="text;html=1;align=center;verticalAlign=middle;resizable=0;points=[];autosize=1;strokeColor=none;fillColor=none;rotation=30;" parent="1" vertex="1">
          <mxGeometry x="579" y="412" width="90" height="30" as="geometry" />
        </mxCell>
        <mxCell id="44BCT_Au62cUfSM1vnff-1" style="rounded=0;orthogonalLoop=1;jettySize=auto;html=1;entryX=0;entryY=0.5;entryDx=0;entryDy=0;dashed=1;exitX=1;exitY=0.5;exitDx=0;exitDy=0;" parent="1" source="44BCT_Au62cUfSM1vnff-5" target="44BCT_Au62cUfSM1vnff-6" edge="1">
          <mxGeometry relative="1" as="geometry" />
        </mxCell>
        <mxCell id="44BCT_Au62cUfSM1vnff-2" style="rounded=0;orthogonalLoop=1;jettySize=auto;html=1;entryX=0;entryY=0.5;entryDx=0;entryDy=0;dashed=1;exitX=1;exitY=0.5;exitDx=0;exitDy=0;fontColor=default;" parent="1" source="44BCT_Au62cUfSM1vnff-5" target="44BCT_Au62cUfSM1vnff-7" edge="1">
          <mxGeometry relative="1" as="geometry" />
        </mxCell>
        <mxCell id="44BCT_Au62cUfSM1vnff-3" style="rounded=0;orthogonalLoop=1;jettySize=auto;html=1;entryX=0;entryY=0.5;entryDx=0;entryDy=0;dashed=1;exitX=1;exitY=0.5;exitDx=0;exitDy=0;" parent="1" source="44BCT_Au62cUfSM1vnff-5" target="44BCT_Au62cUfSM1vnff-8" edge="1">
          <mxGeometry relative="1" as="geometry" />
        </mxCell>
        <mxCell id="44BCT_Au62cUfSM1vnff-4" style="rounded=0;orthogonalLoop=1;jettySize=auto;html=1;entryX=0;entryY=0.5;entryDx=0;entryDy=0;dashed=1;exitX=1;exitY=0.5;exitDx=0;exitDy=0;" parent="1" source="44BCT_Au62cUfSM1vnff-5" target="44BCT_Au62cUfSM1vnff-9" edge="1">
          <mxGeometry relative="1" as="geometry">
            <mxPoint x="565" y="-188" as="sourcePoint" />
            <mxPoint x="751" y="-138" as="targetPoint" />
          </mxGeometry>
        </mxCell>
        <mxCell id="44BCT_Au62cUfSM1vnff-5" value="新闻管理" style="ellipse;whiteSpace=wrap;html=1;align=center;" parent="1" vertex="1">
          <mxGeometry x="419" y="-228" width="100" height="40" as="geometry" />
        </mxCell>
        <mxCell id="44BCT_Au62cUfSM1vnff-6" value="删除新闻" style="ellipse;whiteSpace=wrap;html=1;align=center;" parent="1" vertex="1">
          <mxGeometry x="705" y="-338" width="160" height="40" as="geometry" />
        </mxCell>
        <mxCell id="44BCT_Au62cUfSM1vnff-7" value="增加新闻" style="ellipse;whiteSpace=wrap;html=1;align=center;" parent="1" vertex="1">
          <mxGeometry x="705" y="-283" width="160" height="40" as="geometry" />
        </mxCell>
        <mxCell id="44BCT_Au62cUfSM1vnff-8" value="修改新闻" style="ellipse;whiteSpace=wrap;html=1;align=center;" parent="1" vertex="1">
          <mxGeometry x="705" y="-228" width="160" height="40" as="geometry" />
        </mxCell>
        <mxCell id="44BCT_Au62cUfSM1vnff-9" value="查看所有新闻" style="ellipse;whiteSpace=wrap;html=1;align=center;" parent="1" vertex="1">
          <mxGeometry x="705" y="-173" width="160" height="40" as="geometry" />
        </mxCell>
        <mxCell id="44BCT_Au62cUfSM1vnff-10" value="&amp;lt;&amp;lt;include&amp;gt;&amp;gt;" style="text;html=1;align=center;verticalAlign=middle;resizable=0;points=[];autosize=1;strokeColor=none;fillColor=none;rotation=-30;" parent="1" vertex="1">
          <mxGeometry x="555" y="-288" width="90" height="30" as="geometry" />
        </mxCell>
        <mxCell id="44BCT_Au62cUfSM1vnff-11" value="&amp;lt;&amp;lt;include&amp;gt;&amp;gt;" style="text;html=1;align=center;verticalAlign=middle;resizable=0;points=[];autosize=1;strokeColor=none;fillColor=none;rotation=20;" parent="1" vertex="1">
          <mxGeometry x="565" y="-188" width="90" height="30" as="geometry" />
        </mxCell>
        <mxCell id="44BCT_Au62cUfSM1vnff-12" value="&amp;lt;&amp;lt;include&amp;gt;&amp;gt;" style="text;html=1;align=center;verticalAlign=middle;resizable=0;points=[];autosize=1;strokeColor=none;fillColor=none;rotation=0;" parent="1" vertex="1">
          <mxGeometry x="585" y="-228" width="90" height="30" as="geometry" />
        </mxCell>
        <mxCell id="44BCT_Au62cUfSM1vnff-13" value="&amp;lt;&amp;lt;include&amp;gt;&amp;gt;" style="text;html=1;align=center;verticalAlign=middle;resizable=0;points=[];autosize=1;strokeColor=none;fillColor=none;rotation=-20;" parent="1" vertex="1">
          <mxGeometry x="575" y="-268" width="90" height="30" as="geometry" />
        </mxCell>
        <mxCell id="44BCT_Au62cUfSM1vnff-16" value="编辑用户组" style="ellipse;whiteSpace=wrap;html=1;align=center;" parent="1" vertex="1">
          <mxGeometry x="705" y="-18" width="160" height="40" as="geometry" />
        </mxCell>
        <mxCell id="44BCT_Au62cUfSM1vnff-17" value="编辑用户权限" style="ellipse;whiteSpace=wrap;html=1;align=center;" parent="1" vertex="1">
          <mxGeometry x="705" y="32" width="160" height="40" as="geometry" />
        </mxCell>
        <mxCell id="44BCT_Au62cUfSM1vnff-20" value="&amp;lt;&amp;lt;include&amp;gt;&amp;gt;" style="text;html=1;align=center;verticalAlign=middle;resizable=0;points=[];autosize=1;strokeColor=none;fillColor=none;rotation=-15;dashed=1;" parent="1" vertex="1">
          <mxGeometry x="585" y="42" width="90" height="30" as="geometry" />
        </mxCell>
        <mxCell id="44BCT_Au62cUfSM1vnff-21" value="&amp;lt;&amp;lt;include&amp;gt;&amp;gt;" style="text;html=1;align=center;verticalAlign=middle;resizable=0;points=[];autosize=1;strokeColor=none;fillColor=none;rotation=-30;" parent="1" vertex="1">
          <mxGeometry x="599" y="2" width="90" height="30" as="geometry" />
        </mxCell>
      </root>
    </mxGraphModel>
  </diagram>
</mxfile>
